<svg xmlns="http://www.w3.org/2000/svg" viewBox="0 0 48 48" width="48" height="48">
  <rect width="48" height="48" rx="11" fill="#f2ece0"/>
  <path d="M24 6c1.1 6.9 4.5 10.3 11.4 11.4C28.5 18.5 25.1 21.9 24 28.8c-1.1-6.9-4.5-10.3-11.4-11.4C19.5 16.3 22.9 12.9 24 6Z" fill="#ec4a1a"/>
  <path d="M35 27c.6 3.7 2.4 5.5 6.1 6.1-3.7.6-5.5 2.4-6.1 6.1-.6-3.7-2.4-5.5-6.1-6.1 3.7-.6 5.5-2.4 6.1-6.1Z" fill="#1436c4"/>
  <path d="M12 30c.4 2.6 1.7 3.9 4.3 4.3-2.6.4-3.9 1.7-4.3 4.3-.4-2.6-1.7-3.9-4.3-4.3C10.3 33.9 11.6 32.6 12 30Z" fill="#1a1714"/>
</svg>
